<svg width="92" height="89" viewBox="0 0 92 89" fill="none" xmlns="http://www.w3.org/2000/svg">
<path d="M3.85547 3.75977H87.3544V84.2652H3.85547V3.75977Z" fill="url(#paint0_radial)"/>
<path d="M3.85561 3.76042H87.3545V84.2659H3.85561V3.76042ZM0.0610352 88.0263H91.1674V0H0.0610352V88.0263ZM64.5141 42.4313C66.4479 42.4313 67.1411 42.4313 67.3236 42.3589C67.3236 42.0877 67.3965 41.907 67.3965 41.7262C67.3965 39.7013 66.4114 35.9409 62.4709 35.9409C58.8222 35.9409 57.2716 39.1047 56.8885 42.4493H64.5141V42.4313ZM56.8155 47.5837C56.8885 52.6639 59.3148 56.0808 65.0979 56.0808C67.3418 56.0808 69.2756 55.7735 71.2823 54.9238C71.556 54.8153 71.7384 54.8515 71.7384 55.195V59.8955C71.7384 60.2752 71.6289 60.4559 71.3553 60.6548C69.3485 61.6311 66.831 62.083 63.7297 62.083C53.7142 62.083 49.9561 54.743 49.9561 46.5894C49.9561 37.7127 54.5898 30.4449 62.7445 30.4449C71.0269 30.4449 73.9093 37.333 73.9093 42.9375C73.9093 44.7454 73.7999 46.2097 73.5992 46.9329C73.5262 47.2402 73.4168 47.3487 73.1066 47.421C72.3404 47.5295 70.1148 47.6922 66.7763 47.6922H56.8337V47.5837H56.8155ZM36.4561 43.751C35.398 39.5748 32.8075 30.4811 31.8589 26.0698H31.7859C30.9832 30.463 28.9035 37.9115 27.3528 43.751H36.4561ZM25.8021 49.8436L22.8103 61.0887C22.7373 61.396 22.6278 61.5045 22.2447 61.5045H16.6441C16.261 61.5045 16.188 61.396 16.261 60.9441L27.0427 23.593C27.2251 22.9241 27.3528 22.3817 27.4258 20.5015C27.4258 20.2303 27.5352 20.1219 27.7359 20.1219H35.7082C35.9818 20.1219 36.0913 20.1942 36.1642 20.5015L48.223 61.0164C48.2959 61.3237 48.223 61.5045 47.9128 61.5045H41.6554C41.3453 61.5045 41.1629 61.396 41.0899 61.1249L37.9703 49.8436H25.8021Z" fill="#D8A1FF"/>
<defs>
<radialGradient id="paint0_radial" cx="0" cy="0" r="1" gradientUnits="userSpaceOnUse" gradientTransform="translate(31.381 21.809) scale(63.4619 60.8896)">
<stop stop-color="#442F55" stop-opacity="0.98"/>
<stop offset="1" stop-color="#12002C"/>
</radialGradient>
</defs>
</svg>
