<svg width="92" height="89" viewBox="0 0 92 89" fill="none" xmlns="http://www.w3.org/2000/svg">
<path d="M4.48975 3.75977H87.9887V84.2652H4.48975V3.75977Z" fill="url(#paint0_radial)"/>
<path d="M4.48989 3.76042H87.9888V84.2659H4.48989V3.76042ZM0.695312 88.0263H91.8017V0H0.695312V88.0263ZM60.3687 31.385C60.3687 31.0777 60.4781 30.9331 60.8248 30.9331H66.7903C67.1004 30.9331 67.2464 31.0415 67.2464 31.385V61.0706C67.2464 61.378 67.1734 61.5226 66.7903 61.5226H60.8977C60.5146 61.5226 60.4052 61.3418 60.4052 61.0345V31.385H60.3687ZM59.9491 22.8337C59.9491 20.4292 61.664 19.001 63.8166 19.001C66.1335 19.001 67.6842 20.5377 67.6842 22.8337C67.6842 25.3105 66.0606 26.6664 63.7437 26.6664C61.5545 26.6845 59.9491 25.3286 59.9491 22.8337ZM42.8735 43.751C41.8154 39.5748 39.2978 30.4811 38.3492 26.0698H38.2762C37.4735 30.463 35.4668 37.9115 33.8796 43.751H42.8735ZM32.3289 49.8436L29.3371 61.1249C29.2641 61.4322 29.1546 61.5045 28.7715 61.5045H23.1891C22.806 61.5045 22.733 61.396 22.806 60.9441L33.5877 23.5568C33.7702 22.8879 33.8979 22.2732 33.9708 20.4292C33.9708 20.158 34.0803 20.0495 34.281 20.0495H42.2532C42.5269 20.0495 42.6363 20.1218 42.7093 20.4292L54.7863 61.0164C54.8593 61.3237 54.7863 61.5045 54.4761 61.5045H48.1823C47.8721 61.5045 47.6897 61.4322 47.6167 61.161L44.4971 49.8436H32.3289Z" fill="#FF7F18"/>
<defs>
<radialGradient id="paint0_radial" cx="0" cy="0" r="1" gradientUnits="userSpaceOnUse" gradientTransform="translate(32.0175 21.825) scale(63.4619 60.8896)">
<stop stop-color="#423325" stop-opacity="0.98"/>
<stop offset="1" stop-color="#1C0A00"/>
</radialGradient>
</defs>
</svg>
