<svg width="22" height="20" viewBox="0 0 22 20" fill="none" xmlns="http://www.w3.org/2000/svg">
<path d="M10.2087 0.992364C10.5134 0.0823513 11.8006 0.0823513 12.1053 0.992364L13.9175 6.40504C14.054 6.81274 14.4358 7.08755 14.8658 7.08755H20.665C21.641 7.08755 22.0389 8.34244 21.2412 8.90483L16.6017 12.1761C16.2406 12.4306 16.0894 12.8919 16.2297 13.3108L18.0139 18.6399C18.3206 19.556 17.2789 20.3314 16.4894 19.7747L11.7333 16.4212C11.3877 16.1776 10.9263 16.1776 10.5808 16.4212L5.82462 19.7747C5.03509 20.3314 3.9934 19.556 4.30011 18.6399L6.08436 13.3108C6.22462 12.8919 6.07338 12.4306 5.71234 12.1761L1.07278 8.90483C0.275141 8.34244 0.673051 7.08755 1.64902 7.08755H7.44825C7.87819 7.08755 8.26001 6.81274 8.39651 6.40504L10.2087 0.992364Z" fill="#070707"/>
</svg>
