<svg width="61" height="89" viewBox="0 0 61 89" fill="none" xmlns="http://www.w3.org/2000/svg">
<g clip-path="url(#clip0)">
<path d="M15.7256 88.8719C23.935 88.8719 30.5938 82.241 30.5938 74.0658V59.2598H15.7256C7.51617 59.2598 0.857422 65.8907 0.857422 74.0658C0.857422 82.241 7.51617 88.8719 15.7256 88.8719Z" fill="#0ACF83"/>
<path d="M0.857422 44.4369C0.857422 36.2618 7.51617 29.6309 15.7256 29.6309H30.5938V59.2612H15.7256C7.51617 59.243 0.857422 52.6121 0.857422 44.4369Z" fill="#A259FF"/>
<path d="M0.857422 14.8061C0.857422 6.63094 7.51617 0 15.7256 0H30.5938V29.6303H15.7256C7.51617 29.6303 0.857422 22.9812 0.857422 14.8061Z" fill="#F24E1E"/>
<path d="M30.6118 0H45.48C53.6894 0 60.3482 6.63094 60.3482 14.8061C60.3482 22.9812 53.6894 29.6122 45.48 29.6122H30.6118V0Z" fill="#FF7262"/>
<path d="M60.3482 44.4369C60.3482 52.6121 53.6894 59.243 45.48 59.243C37.2706 59.243 30.6118 52.6121 30.6118 44.4369C30.6118 36.2618 37.2706 29.6309 45.48 29.6309C53.6894 29.6309 60.3482 36.2618 60.3482 44.4369Z" fill="#1ABCFE"/>
</g>
<defs>
<clipPath id="clip0">
<rect width="59.4909" height="88.8728" fill="white" transform="translate(0.857422)"/>
</clipPath>
</defs>
</svg>
