<svg width="22" height="20" viewBox="0 0 22 20" fill="none" xmlns="http://www.w3.org/2000/svg">
<path d="M9.89528 0.992362C10.2 0.0823495 11.4871 0.0823498 11.7918 0.992362L13.604 6.40504C13.7405 6.81274 14.1224 7.08755 14.5523 7.08755H20.3515C21.3275 7.08755 21.7254 8.34244 20.9278 8.90483L16.2882 12.1761C15.9272 12.4306 15.7759 12.8919 15.9162 13.3108L17.7004 18.6399C18.0072 19.556 16.9655 20.3314 16.1759 19.7747L11.4198 16.4212C11.0743 16.1776 10.6128 16.1776 10.2673 16.4212L5.51114 19.7747C4.72162 20.3314 3.67993 19.556 3.98664 18.6399L5.77089 13.3108C5.91115 12.8919 5.75991 12.4306 5.39887 12.1761L0.759308 8.90483C-0.0383337 8.34244 0.359577 7.08755 1.33555 7.08755H7.13478C7.56472 7.08755 7.94654 6.81274 8.08304 6.40504L9.89528 0.992362Z" fill="#E5E5E5"/>
</svg>
