<svg width="39" height="40" viewBox="0 0 39 40" fill="none" xmlns="http://www.w3.org/2000/svg">
<path d="M30.2437 6.969L30.5574 6.58106L30.1702 6.26648C27.2727 3.91276 23.5939 2.50771 19.5704 2.50771C18.1608 2.50771 16.794 2.702 15.4998 3.02034L14.7627 3.20164L15.2202 3.80727C16.6018 5.63588 18.5863 8.39752 20.9631 12.7228L21.1697 13.0989L21.5728 12.9517C26.0709 11.3084 28.7672 8.79455 30.2437 6.969ZM13.0539 4.25312L12.8099 3.93688L12.4476 4.10502C7.98046 6.17811 4.59301 10.1394 3.25546 14.9806L3.08604 15.5938L3.72193 15.6135C6.18168 15.6897 12.0616 15.5756 18.5769 13.8584L19.2032 13.6934L18.885 13.1293C16.3574 8.64779 14.2318 5.77961 13.0539 4.25312ZM32.3833 8.41612L31.9982 7.96601L31.6191 8.42119C29.9746 10.3959 27.1183 12.9621 22.5948 14.7035L22.0813 14.9012L22.3271 15.3935C23.3022 17.3465 24.248 19.4275 25.1099 21.6748L25.2537 22.0499L25.651 21.9902C28.9236 21.4986 31.9487 21.4985 34.2338 21.6746C34.7895 21.72 35.1481 21.7709 35.5653 21.8302C35.6532 21.8427 35.7437 21.8556 35.8391 21.8688L36.3493 21.9396L36.4049 21.4276C36.472 20.8106 36.5106 20.1908 36.5106 19.5501C36.5106 15.2892 34.9414 11.4063 32.3833 8.41612ZM20.3153 15.8746L20.1298 15.5087L19.7348 15.6191C12.0702 17.7614 5.31832 17.696 3.21547 17.6125L2.73454 17.5934L2.69714 18.0732L2.69456 18.1063C2.65824 18.572 2.6209 19.0507 2.6209 19.5595C2.6209 24.6821 4.87366 29.2529 8.42305 32.3791L8.79251 32.7046L9.12359 32.3402C10.0129 31.3615 11.2056 30.115 12.6557 28.8138L12.6577 28.812C15.3859 26.3377 18.8966 23.719 22.7214 22.5764L23.2442 22.4202L23.043 21.9129C22.1868 19.7542 21.2649 17.7477 20.3153 15.8746ZM29.7431 23.5902L29.7378 23.5905C28.7333 23.6381 27.6639 23.7334 26.5765 23.8761L25.9773 23.9548L26.1668 24.5286C27.0844 27.3079 27.8434 30.2519 28.3337 33.3143L28.4585 34.094L29.11 33.6477C32.2762 31.4786 34.6729 28.2538 35.7896 24.4663L35.9584 23.8938L35.3653 23.8279C33.9146 23.6668 32.0754 23.5044 29.7431 23.5902ZM24.1252 24.7542L23.9708 24.3058L23.5149 24.4363C20.1555 25.3979 16.641 27.8919 13.9771 30.2974C12.69 31.4499 11.6504 32.5437 10.8163 33.4397L10.3934 33.8939L10.9272 34.2104C13.4566 35.7104 16.3932 36.5925 19.5611 36.5925C21.9387 36.5925 24.1815 36.0984 26.2301 35.2274L26.5819 35.0778L26.5297 34.699C26.0484 31.2041 25.1993 27.8733 24.1252 24.7542ZM0.641113 19.5501C0.641113 9.05197 9.14469 0.5 19.5704 0.5C29.9962 0.5 38.4998 9.05197 38.4998 19.5501C38.4998 30.0483 29.9962 38.6003 19.5704 38.6003C9.14469 38.6003 0.641113 30.0483 0.641113 19.5501Z" fill="#070707" stroke="#070707"/>
</svg>
