<svg width="40" height="40" viewBox="0 0 40 40" fill="none" xmlns="http://www.w3.org/2000/svg">
<path d="M12.1541 0.509395H12.6541V0.5H28.4541C34.3864 0.5 39.2288 5.37527 39.2288 11.3514V27.7489C39.2288 33.7252 34.3862 38.6003 28.4635 38.6003H12.1541C6.22043 38.6003 1.37012 33.733 1.37012 27.7677V11.3608C1.37012 5.38521 6.22124 0.509395 12.1541 0.509395ZM3.35924 11.3692V11.3702V27.7771C3.35924 32.665 7.27073 36.6027 12.1541 36.6027H28.4635C33.3296 36.6027 37.2396 32.6635 37.2396 27.7583V11.3608C37.2396 6.45517 33.3292 2.51639 28.4541 2.51639H12.1541C7.27843 2.51639 3.36913 6.4555 3.35924 11.3692ZM31.2707 7.52687C31.2707 6.96388 31.7129 6.52338 32.2653 6.52338C32.8177 6.52338 33.2598 6.96388 33.2598 7.52687C33.2598 8.08986 32.8177 8.53037 32.2653 8.53037C31.7129 8.53037 31.2707 8.08986 31.2707 7.52687ZM10.3468 19.5548C10.3468 14.0397 14.8337 9.53037 20.3088 9.53037C25.7839 9.53037 30.2707 14.0397 30.2707 19.5548C30.2707 25.07 25.7839 29.5793 20.3088 29.5793C14.8337 29.5793 10.3468 25.07 10.3468 19.5548ZM28.2816 19.5548C28.2816 15.1093 24.7351 11.5374 20.3088 11.5374C15.8824 11.5374 12.336 15.1093 12.336 19.5548C12.336 24.0004 15.8824 27.5723 20.3088 27.5723C24.7351 27.5723 28.2816 24.0004 28.2816 19.5548Z" fill="#070707" stroke="#070707"/>
</svg>
