<svg width="41" height="40" viewBox="0 0 41 40" fill="none" xmlns="http://www.w3.org/2000/svg">
<g clip-path="url(#clip0)">
<path d="M34.5276 0.211914H6.34888C3.12969 0.211914 0.510742 2.78139 0.510742 5.93977V33.5862C0.510742 36.7446 3.12969 39.3141 6.34888 39.3141H34.5276C37.7468 39.3141 40.3658 36.7446 40.3658 33.5862V5.93977C40.3658 2.78139 37.7468 0.211914 34.5276 0.211914ZM38.0305 33.5862C38.0305 35.4812 36.4591 37.0229 34.5276 37.0229H6.34888C4.41743 37.0229 2.846 35.4812 2.846 33.5862V5.93977C2.846 4.0448 4.41743 2.50306 6.34888 2.50306H34.5276C36.4591 2.50306 38.0305 4.0448 38.0305 5.93977V33.5862Z" fill="#070707" stroke="#070707" stroke-width="0.5"/>
<path d="M19.2705 16.3264C19.2705 13.7996 17.1755 11.7441 14.6 11.7441H7.59424V27.7821H14.6C17.1755 27.7821 19.2705 25.7267 19.2705 23.1999C19.2705 21.8323 18.656 20.6035 17.6842 19.7631C18.656 18.9228 19.2705 17.694 19.2705 16.3264ZM16.9353 23.1999C16.9353 24.4633 15.8877 25.491 14.6 25.491H9.92949V20.9087H14.6C15.8877 20.9087 16.9353 21.9364 16.9353 23.1999ZM9.92949 18.6176V14.0353H14.6C15.8877 14.0353 16.9353 15.063 16.9353 16.3264C16.9353 17.5898 15.8877 18.6176 14.6 18.6176H9.92949Z" fill="#070707" stroke="#070707" stroke-width="0.5"/>
<path d="M27.4441 16.3262C24.2249 16.3262 21.606 18.8957 21.606 22.054C21.606 25.2124 24.2249 27.7819 27.4441 27.7819C29.5218 27.7819 31.4593 26.6849 32.5005 24.9188L30.479 23.7715C29.8538 24.832 28.6908 25.4907 27.4441 25.4907C25.9216 25.4907 24.6232 24.5331 24.1413 23.1996H33.2822V22.054C33.2822 18.8957 30.6633 16.3262 27.4441 16.3262ZM24.1413 20.9085C24.6232 19.5749 25.9216 18.6173 27.4441 18.6173C28.9666 18.6173 30.265 19.5749 30.7469 20.9085H24.1413Z" fill="#070707" stroke="#070707" stroke-width="0.5"/>
<path d="M22.7734 11.7441H32.1145V14.0353H22.7734V11.7441Z" fill="#070707" stroke="#070707" stroke-width="0.5"/>
</g>
<defs>
<clipPath id="clip0">
<rect width="39.855" height="39.1022" fill="white" transform="translate(0.510742 0.211914)"/>
</clipPath>
</defs>
</svg>
