<svg width="92" height="88" viewBox="0 0 92 88" fill="none" xmlns="http://www.w3.org/2000/svg">
<path d="M4.12402 3.75586H87.5257V84.1029H4.12402V3.75586Z" fill="url(#paint0_radial)"/>
<path d="M4.12433 3.75555H87.526V84.1026H4.12433V3.75555ZM0.33252 87.8581H91.2995V0H0.33252V87.8581ZM61.676 36.0569C58.6863 36.0569 57.6654 37.5555 57.6654 38.8013C57.6654 40.1555 58.3399 41.0943 62.3687 43.1527C68.3117 46.0054 70.1711 48.7499 70.1711 52.7582C70.1711 58.7707 65.5407 62.0026 59.2879 62.0026C55.9883 62.0026 53.1444 61.3346 51.522 60.3957C51.2485 60.2873 51.2121 60.0887 51.2121 59.7999V54.2568C51.2121 53.8776 51.3944 53.7693 51.6678 53.9499C54.0559 55.4846 56.7904 56.1707 59.2879 56.1707C62.2776 56.1707 63.5355 54.9249 63.5355 53.2457C63.5355 51.8915 62.6604 50.6999 58.8322 48.7318C53.4543 46.186 51.2121 43.6041 51.2121 39.2707C51.2121 34.4319 55.0403 30.4055 61.676 30.4055C64.9392 30.4055 67.2179 30.893 68.4575 31.4527C68.7674 31.6333 68.8403 31.9402 68.8403 32.211V37.3568C68.8403 37.6638 68.6581 37.8443 68.2752 37.736C66.5981 36.6888 64.137 36.0569 61.676 36.0569ZM29.081 40.5166C29.956 40.5888 30.6306 40.5888 32.1436 40.5888C36.5735 40.5888 40.7481 39.0541 40.7481 33.0777C40.7481 28.311 37.7584 25.9097 32.7088 25.9097C31.1957 25.9097 29.7555 25.9819 29.0628 26.018L29.081 40.5166ZM22.3177 20.5833C22.3177 20.3124 22.8464 20.1319 23.1563 20.1319C25.5809 20.0236 29.1904 19.9513 32.9275 19.9513C43.4279 19.9513 47.5296 25.6569 47.5296 32.9333C47.5296 42.4666 40.5476 46.5652 31.9796 46.5652C30.5394 46.5652 30.0472 46.4929 29.0263 46.4929V60.9012C29.0263 61.2082 28.9169 61.3526 28.5706 61.3526H22.7735C22.4636 61.3526 22.3177 61.2443 22.3177 60.9012V20.5833Z" fill="#31C5F0"/>
<defs>
<radialGradient id="paint0_radial" cx="0" cy="0" r="1" gradientUnits="userSpaceOnUse" gradientTransform="translate(31.6005 21.7818) scale(63.3759 60.7726)">
<stop stop-color="#34364E" stop-opacity="0.98"/>
<stop offset="1" stop-color="#0C0824"/>
</radialGradient>
</defs>
</svg>
